<svg xmlns="http://www.w3.org/2000/svg" xmlns:xlink="http://www.w3.org/1999/xlink" viewBox="0,0,256,256" width="96px" height="96px" fill-rule="nonzero"><g fill="#ffffff" fill-rule="nonzero" stroke="none" stroke-width="1" stroke-linecap="butt" stroke-linejoin="miter" stroke-miterlimit="10" stroke-dasharray="" stroke-dashoffset="0" font-family="none" font-weight="none" font-size="none" text-anchor="none" style="mix-blend-mode: normal"><g transform="scale(10.66667,10.66667)"><path d="M9.5,3c-1.92717,0 -3.5,1.57283 -3.5,3.5c0,1.27867 0.69962,2.38922 1.72852,3c-1.0289,0.61078 -1.72852,1.72133 -1.72852,3c0,1.30161 0.74906,2.39707 1.80859,3c-1.05954,0.60292 -1.80859,1.69839 -1.80859,3c0,1.92717 1.57283,3.5 3.5,3.5c1.92717,0 3.5,-1.57283 3.5,-3.5v-3v-0.49414c0.59125,0.59801 1.44401,0.99414 2.5,0.99414c1.125,0 2.03141,-0.43988 2.62305,-1.10547c0.59164,-0.66559 0.87695,-1.53342 0.87695,-2.39453c0,-0.86111 -0.28532,-1.72894 -0.87695,-2.39453c-0.23512,-0.26451 -0.55418,-0.45893 -0.88281,-0.63867c1.03125,-0.61021 1.75977,-1.68636 1.75977,-2.9668c0,-1.92717 -1.57283,-3.5 -3.5,-3.5zM9.5,4h6c1.38683,0 2.5,1.11317 2.5,2.5c0,1.38683 -1.11317,2.5 -2.5,2.5h-3h-3c-1.38683,0 -2.5,-1.11317 -2.5,-2.5c0,-1.38683 1.11317,-2.5 2.5,-2.5zM9.5,10h2.5v2.5v2.5h-2.5c-1.38683,0 -2.5,-1.11317 -2.5,-2.5c0,-1.38683 1.11317,-2.5 2.5,-2.5zM13,10h0.02344c-0.00676,0.00678 -0.01562,0.01176 -0.02344,0.01758zM15.5,10c0.875,0 1.46859,0.31012 1.87695,0.76953c0.40836,0.45941 0.62305,1.09158 0.62305,1.73047c0,0.63889 -0.21468,1.27106 -0.62305,1.73047c-0.40836,0.45941 -1.00195,0.76953 -1.87695,0.76953c-0.875,0 -1.46859,-0.31012 -1.87695,-0.76953c-0.40836,-0.45941 -0.62305,-1.09158 -0.62305,-1.73047c0,-0.63889 0.21468,-1.27106 0.62305,-1.73047c0.40836,-0.45941 1.00195,-0.76953 1.87695,-0.76953zM9.5,16h2.5v2.5c0,1.38683 -1.11317,2.5 -2.5,2.5c-1.38683,0 -2.5,-1.11317 -2.5,-2.5c0,-1.38683 1.11317,-2.5 2.5,-2.5z"></path></g></g></svg>