<svg xmlns="http://www.w3.org/2000/svg" xmlns:xlink="http://www.w3.org/1999/xlink" width="500" zoomAndPan="magnify" viewBox="0 0 375 374.999991" height="500" preserveAspectRatio="xMidYMid meet" version="1.0"><defs><g/><clipPath id="d14821c743"><path d="M 47 55 L 275 55 L 275 313 L 47 313 Z M 47 55 " clip-rule="nonzero"/></clipPath><clipPath id="46c92f76dd"><path d="M 143.195312 0 L 361.09375 150.378906 L 210.714844 368.273438 L -7.183594 217.898438 Z M 143.195312 0 " clip-rule="nonzero"/></clipPath><clipPath id="62d4b169d2"><path d="M 143.195312 0 L 361.09375 150.378906 L 210.714844 368.273438 L -7.183594 217.898438 Z M 143.195312 0 " clip-rule="nonzero"/></clipPath><clipPath id="04e8a352be"><path d="M 116 299 L 145 299 L 145 310 L 116 310 Z M 116 299 " clip-rule="nonzero"/></clipPath><clipPath id="5e915c07ad"><path d="M 143.195312 0 L 361.09375 150.378906 L 210.714844 368.273438 L -7.183594 217.898438 Z M 143.195312 0 " clip-rule="nonzero"/></clipPath><clipPath id="7dc32f53bf"><path d="M 143.195312 0 L 361.09375 150.378906 L 210.714844 368.273438 L -7.183594 217.898438 Z M 143.195312 0 " clip-rule="nonzero"/></clipPath><clipPath id="d186a26589"><path d="M 75 272 L 97 272 L 97 288 L 75 288 Z M 75 272 " clip-rule="nonzero"/></clipPath><clipPath id="64fd624e4a"><path d="M 143.195312 0 L 361.09375 150.378906 L 210.714844 368.273438 L -7.183594 217.898438 Z M 143.195312 0 " clip-rule="nonzero"/></clipPath><clipPath id="ebf89a1043"><path d="M 143.195312 0 L 361.09375 150.378906 L 210.714844 368.273438 L -7.183594 217.898438 Z M 143.195312 0 " clip-rule="nonzero"/></clipPath><clipPath id="5e4f2fa43c"><path d="M 70 266 L 74 266 L 74 269 L 70 269 Z M 70 266 " clip-rule="nonzero"/></clipPath><clipPath id="37af1a7de5"><path d="M 143.195312 0 L 361.09375 150.378906 L 210.714844 368.273438 L -7.183594 217.898438 Z M 143.195312 0 " clip-rule="nonzero"/></clipPath><clipPath id="fcf1c687a7"><path d="M 143.195312 0 L 361.09375 150.378906 L 210.714844 368.273438 L -7.183594 217.898438 Z M 143.195312 0 " clip-rule="nonzero"/></clipPath><clipPath id="0b7199b088"><path d="M 246 73 L 256 73 L 256 80 L 246 80 Z M 246 73 " clip-rule="nonzero"/></clipPath><clipPath id="b9a9bc6dd9"><path d="M 143.195312 0 L 361.09375 150.378906 L 210.714844 368.273438 L -7.183594 217.898438 Z M 143.195312 0 " clip-rule="nonzero"/></clipPath><clipPath id="751f1013c6"><path d="M 143.195312 0 L 361.09375 150.378906 L 210.714844 368.273438 L -7.183594 217.898438 Z M 143.195312 0 " clip-rule="nonzero"/></clipPath><clipPath id="a06bb4ac82"><path d="M 230 65 L 243 65 L 243 72 L 230 72 Z M 230 65 " clip-rule="nonzero"/></clipPath><clipPath id="55ba77e738"><path d="M 143.195312 0 L 361.09375 150.378906 L 210.714844 368.273438 L -7.183594 217.898438 Z M 143.195312 0 " clip-rule="nonzero"/></clipPath><clipPath id="b737c71a32"><path d="M 143.195312 0 L 361.09375 150.378906 L 210.714844 368.273438 L -7.183594 217.898438 Z M 143.195312 0 " clip-rule="nonzero"/></clipPath><clipPath id="757f0f9368"><path d="M 137 58 L 140 58 L 140 61 L 137 61 Z M 137 58 " clip-rule="nonzero"/></clipPath><clipPath id="1a4de6c584"><path d="M 143.195312 0 L 361.09375 150.378906 L 210.714844 368.273438 L -7.183594 217.898438 Z M 143.195312 0 " clip-rule="nonzero"/></clipPath><clipPath id="26345fa71d"><path d="M 143.195312 0 L 361.09375 150.378906 L 210.714844 368.273438 L -7.183594 217.898438 Z M 143.195312 0 " clip-rule="nonzero"/></clipPath><clipPath id="7d51811e64"><path d="M 56 182 L 72 182 L 72 231 L 56 231 Z M 56 182 " clip-rule="nonzero"/></clipPath><clipPath id="5a838b5983"><path d="M 143.195312 0 L 361.09375 150.378906 L 210.714844 368.273438 L -7.183594 217.898438 Z M 143.195312 0 " clip-rule="nonzero"/></clipPath><clipPath id="267773ba8e"><path d="M 143.195312 0 L 361.09375 150.378906 L 210.714844 368.273438 L -7.183594 217.898438 Z M 143.195312 0 " clip-rule="nonzero"/></clipPath></defs><g clip-path="url(#d14821c743)"><g clip-path="url(#46c92f76dd)"><g clip-path="url(#62d4b169d2)"><path fill="#ffffff" d="M 256.425781 288.140625 C 259.050781 286.175781 263.617188 284.058594 267.320312 281.367188 C 270.960938 278.628906 274.136719 275.746094 274.5 273.457031 C 274.945312 270.589844 271.257812 272.480469 270.371094 271.703125 C 269.535156 270.996094 267.933594 268.082031 265.984375 265.390625 C 264.035156 262.699219 261.769531 260.199219 259.871094 260.011719 C 258.601562 259.890625 256.375 261.160156 253.644531 263.226562 C 252.242188 264.226562 250.859375 265.574219 249.132812 266.800781 C 247.402344 268.03125 245.582031 269.351562 243.71875 270.761719 L 240.90625 272.90625 C 239.925781 273.589844 238.871094 274.179688 237.863281 274.828125 C 235.835938 276.101562 233.8125 277.375 231.863281 278.597656 C 227.820312 280.792969 223.929688 282.550781 220.992188 283.863281 C 210.734375 287.503906 200.234375 290.191406 189.488281 291.917969 C 179.160156 293.15625 168.609375 293.621094 156.714844 292.082031 C 140.527344 289.644531 127.007812 283.625 114.457031 275.734375 C 101.910156 267.667969 90.015625 257.835938 77.371094 243.648438 C 70.183594 234.855469 64.6875 225.105469 60.890625 214.402344 C 56.648438 202.535156 54.660156 188.871094 55.078125 175.371094 C 55.492188 161.871094 58.433594 148.574219 62.773438 137.042969 C 63.945312 134.1875 65.09375 131.394531 66.199219 128.691406 C 67.5625 126.09375 68.878906 123.582031 70.152344 121.15625 C 71.316406 118.652344 72.78125 116.464844 74.140625 114.34375 C 75.476562 112.191406 76.75 110.148438 77.945312 108.222656 C 77.289062 109.40625 75.949219 107.503906 77.945312 108.222656 C 84.808594 99.988281 93.625 90.96875 104.632812 83.269531 C 115.636719 75.570312 128.703125 69.457031 142.300781 65.515625 C 155.902344 61.570312 170.023438 59.882812 183.007812 59.871094 L 192.519531 60.191406 C 195.613281 60.351562 198.558594 60.839844 201.457031 61.097656 L 205.730469 61.523438 C 207.109375 61.730469 208.4375 62.015625 209.753906 62.238281 C 212.386719 62.714844 214.917969 63.136719 217.347656 63.496094 C 211.636719 62.667969 214.726562 63.011719 219.125 63.601562 C 223.394531 64.496094 229.105469 65.710938 228.613281 65.199219 C 227.355469 63.882812 225.667969 62.835938 223.757812 61.972656 C 221.757812 61.035156 219.667969 60.398438 217.480469 60.070312 L 204.988281 58.210938 L 196.492188 56.847656 L 194.386719 56.527344 L 192.253906 56.402344 L 188.023438 56.152344 C 182.421875 55.617188 176.84375 55.996094 171.375 56.089844 C 160.4375 56.839844 149.84375 58.054688 139.410156 59.988281 C 140.371094 62.914062 135.527344 61.691406 134.078125 62.886719 C 134.070312 67.410156 127.746094 63.53125 134.078125 62.886719 C 132.464844 62.714844 129.953125 63.273438 127.003906 64.082031 C 125.535156 64.492188 123.957031 64.992188 122.351562 65.53125 C 120.746094 66.070312 119.203125 66.921875 117.648438 67.625 C 114.574219 69.175781 111.503906 70.503906 109.285156 72.007812 L 104.722656 74.972656 C 103.367188 75.851562 101.335938 76.695312 99.148438 77.921875 C 97.003906 79.203125 94.5625 80.640625 92.117188 82.226562 C 89.597656 83.71875 87.371094 85.714844 85.4375 87.777344 C 83.507812 89.839844 81.855469 91.9375 80.90625 94.09375 C 81.011719 93.769531 83.089844 91.769531 86.25 88.796875 C 87.882812 87.375 89.578125 85.457031 91.855469 83.910156 C 94.054688 82.269531 96.449219 80.519531 98.890625 78.71875 C 109.015625 72.019531 121.234375 66.535156 126.375 65.71875 C 128.25 65.3125 127.28125 65.910156 124.726562 67.070312 L 122.523438 68.042969 C 121.730469 68.464844 120.867188 68.929688 119.941406 69.421875 C 118.089844 70.382812 116.003906 71.46875 113.832031 72.601562 C 111.605469 73.617188 109.535156 75.160156 107.410156 76.453125 C 105.316406 77.796875 103.242188 79.0625 101.410156 80.289062 L 93.953125 86.035156 C 92.582031 86.996094 90.695312 89.480469 88.867188 91.820312 C 87.035156 94.160156 85.167969 96.332031 83.902344 97.054688 C 83.699219 97.183594 80.351562 96.816406 80.351562 96.816406 C 79.4375 97.984375 79.082031 99.691406 78.386719 101.660156 C 78.007812 102.746094 77.527344 103.785156 76.945312 104.777344 C 76.171875 106 75.335938 107.179688 74.433594 108.3125 C 71.769531 111.457031 71.394531 110.484375 71.957031 108.496094 C 72.515625 106.503906 73.984375 103.488281 75.015625 102.933594 C 73.226562 103.980469 71.773438 105.53125 70.21875 107.179688 C 68.664062 108.824219 67.144531 110.675781 65.625 112.652344 C 64.101562 114.625 62.964844 116.980469 61.640625 119.300781 C 61.019531 120.480469 60.386719 121.675781 59.742188 122.890625 L 58.816406 124.746094 L 58.058594 126.710938 C 53.617188 137.070312 51.363281 148.933594 49.292969 159.9375 C 47.523438 171.773438 47.222656 183.648438 48.390625 195.558594 C 49.746094 207.316406 52.660156 218.40625 55.996094 228.175781 C 63.265625 247.976562 75.972656 263.707031 90.632812 275.375 C 92.367188 276.964844 94.445312 278.105469 96.335938 279.496094 L 102.070312 283.453125 L 108.148438 286.824219 C 110.191406 287.90625 112.109375 289.203125 114.269531 290.046875 C 118.53125 291.8125 122.585938 294.070312 127.039062 295.40625 L 133.59375 297.769531 C 135.816406 298.476562 138.09375 298.988281 140.363281 299.648438 C 141.324219 299.878906 143.429688 300.757812 146.160156 301.566406 L 155.585938 303.964844 C 158.894531 304.679688 162.191406 304.964844 164.691406 305.261719 C 167.1875 305.5625 168.941406 305.539062 169.207031 305.125 C 168.828125 305.710938 166.789062 305.910156 163.832031 305.988281 C 160.886719 305.984375 156.992188 306.183594 153.050781 305.460938 C 145.066406 304.683594 136.898438 302.046875 134.125 301.199219 C 132.214844 300.550781 130.167969 299.535156 127.902344 298.660156 C 125.679688 297.667969 123.1875 296.910156 120.808594 295.632812 L 113.433594 291.875 L 111.554688 290.933594 L 109.777344 289.816406 L 106.234375 287.59375 C 96.761719 281.871094 89.132812 275.027344 85.695312 271.96875 C 85.382812 271.699219 84.046875 270.714844 82.269531 269.4375 C 80.5625 268.09375 78.597656 266.277344 76.679688 264.71875 C 74.761719 263.160156 73.011719 261.753906 71.988281 261.035156 C 71.027344 260.273438 70.691406 260.285156 71.503906 261.667969 C 81.867188 277.398438 99.117188 290.285156 117.90625 298.070312 C 119.078125 298.566406 120.222656 299.140625 121.417969 299.574219 L 125.035156 300.78125 L 132.226562 303.207031 C 134.65625 303.859375 137.101562 304.394531 139.519531 305.011719 C 141.941406 305.632812 144.328125 306.34375 146.78125 306.648438 C 151.648438 307.417969 156.414062 308.539062 161.199219 308.902344 C 163.578125 309.191406 165.945312 309.507812 168.292969 309.847656 C 170.644531 310 172.972656 310.152344 175.289062 310.371094 C 176.464844 309.636719 178.292969 309.363281 180.417969 309.339844 C 182.699219 309.167969 184.976562 309.117188 187.261719 309.195312 C 189.582031 309.222656 191.84375 309.402344 193.546875 309.261719 C 195.25 309.121094 196.429688 308.832031 196.652344 308.371094 C 196.097656 309.5 194.871094 310.230469 193.253906 310.714844 C 191.609375 311.066406 189.566406 311.105469 187.429688 311.054688 L 180.957031 310.738281 C 178.851562 310.507812 176.890625 310.277344 175.285156 310.386719 C 172.71875 310.539062 170.148438 310.832031 167.570312 310.859375 L 159.828125 310.683594 L 155.949219 310.574219 L 152.097656 310.117188 L 144.378906 309.195312 C 153.773438 311.222656 163.269531 312.332031 172.875 312.527344 C 182.480469 312.71875 192.015625 311.992188 201.484375 310.347656 C 206.464844 309.746094 211.214844 308.164062 216.109375 307.011719 C 218.578125 306.488281 220.871094 305.480469 223.253906 304.691406 L 230.351562 302.175781 C 234.851562 300.046875 239.5 298.125 243.851562 295.777344 L 250.246094 292.0625 C 252.378906 290.835938 254.511719 289.617188 256.425781 288.140625 Z M 262.859375 271.699219 C 263.738281 271.714844 262.820312 274.492188 262.308594 274.484375 C 261.445312 274.453125 262.363281 271.675781 262.859375 271.699219 Z M 230.089844 298.207031 C 232.199219 299.246094 215.859375 306.285156 225.785156 300.464844 C 226.390625 300.125 229.527344 298.082031 230.089844 298.203125 Z M 219.734375 301.828125 C 220.652344 302.226562 217.148438 304.351562 214.433594 305.132812 C 211.769531 306.039062 210.207031 306.203125 215.332031 303.785156 C 215.992188 303.589844 219.15625 301.570312 219.734375 301.828125 Z M 248.191406 282.257812 Z M 210.347656 304.125 C 211.15625 304.503906 205.414062 307.203125 201.261719 307.980469 C 197.160156 308.976562 195.070312 309.160156 203.589844 306.503906 C 205.839844 305.828125 209.457031 303.582031 210.347656 304.125 Z M 240.792969 286.132812 C 241.636719 286.332031 240.222656 288.832031 239.726562 288.707031 C 238.90625 288.507812 240.3125 286.003906 240.785156 286.140625 Z M 236.039062 289.554688 C 237.515625 290.546875 229.894531 295.003906 229.730469 295.089844 C 223.40625 298.640625 214.144531 300.996094 207.183594 302.265625 C 204.46875 303.019531 199.917969 303.546875 197.320312 303.71875 C 194.71875 303.886719 194.011719 303.535156 198.648438 301.945312 C 202.425781 300.871094 207.710938 299.351562 213.773438 298.039062 C 216.765625 297.289062 219.8125 296.226562 222.960938 295.335938 C 226.152344 294.519531 229.128906 293.207031 232.035156 292.011719 C 232.539062 291.820312 235.652344 289.300781 236.035156 289.566406 Z M 190.613281 302.554688 C 191.289062 303.121094 189.023438 304.660156 188.636719 304.328125 C 187.992188 303.753906 190.238281 302.21875 190.613281 302.554688 Z M 185.03125 303.496094 C 185.753906 304.128906 181.59375 306.464844 180.714844 305.664062 C 180.0625 305.027344 184.167969 302.691406 185.03125 303.496094 Z M 83.296875 261.796875 Z M 58.789062 223.484375 C 58.390625 224.128906 59.402344 222.484375 58.789062 223.484375 Z M 57.242188 219.371094 C 56.785156 220.125 54.199219 217.457031 54.761719 216.679688 C 55.21875 215.96875 57.726562 218.628906 57.242188 219.371094 Z M 55.261719 213.082031 C 54.753906 213.769531 53.011719 211.699219 53.320312 211.300781 C 53.832031 210.640625 55.566406 212.6875 55.261719 213.082031 Z M 54.402344 209.890625 C 54.976562 209.179688 53.558594 207.367188 52.324219 205.394531 C 51.203125 203.410156 50.125 201.300781 50.941406 200.40625 C 51.902344 201.550781 52.753906 202.769531 53.496094 204.066406 C 54.511719 206.082031 55.710938 208.289062 54.402344 209.890625 Z M 51.78125 196.914062 C 50.015625 198.378906 49.515625 182.179688 51.222656 192.527344 L 51.632812 194.789062 C 51.851562 195.75 52 196.6875 51.78125 196.914062 Z M 50.894531 188.117188 C 50.894531 188.117188 50.253906 186.917969 49.707031 185.617188 C 49.15625 184.3125 48.664062 182.910156 49.113281 182.597656 C 49.351562 182.746094 49.5625 182.921875 49.753906 183.128906 C 50.214844 183.539062 50.632812 183.996094 50.996094 184.496094 C 51.78125 185.589844 52.21875 186.9375 50.894531 188.109375 Z M 50.605469 179.253906 C 48.964844 180.464844 50.042969 164.25 50.699219 174.8125 C 50.742188 175.433594 51.125 178.867188 50.605469 179.246094 Z M 51.175781 168.160156 C 51.492188 167.960938 51.511719 166.425781 51.421875 164.152344 L 51.246094 160.285156 C 51.265625 158.871094 51.363281 157.382812 51.449219 155.863281 C 51.671875 152.828125 51.816406 149.65625 52.476562 147.21875 C 53.195312 144.808594 54.054688 143.042969 55.101562 142.65625 C 54.082031 143.054688 53.460938 148.867188 53.535156 154.84375 C 53.109375 160.726562 53.578125 166.742188 51.179688 168.15625 Z M 57.101562 140.949219 C 56.078125 141.363281 56.78125 138 57.921875 135.972656 C 58.988281 133.914062 59.882812 133.011719 58.125 137.742188 C 58.027344 138.179688 57.527344 140.808594 57.101562 140.949219 Z M 59.914062 133.636719 C 59.914062 133.636719 59.90625 132.273438 60.027344 130.867188 C 60.144531 129.457031 60.402344 127.988281 60.882812 127.867188 C 61.035156 128.117188 61.15625 128.378906 61.246094 128.65625 C 61.464844 129.234375 61.621094 129.832031 61.710938 130.445312 C 61.90625 131.777344 61.664062 133.183594 59.925781 133.640625 Z M 65.296875 122.523438 Z M 66.953125 119.578125 C 66.042969 119.75 66.742188 114.984375 68.039062 114.90625 C 68.902344 114.78125 68.109375 119.417969 66.964844 119.582031 Z M 146.027344 62.609375 C 145.296875 62.007812 148.46875 60.023438 149.1875 60.640625 C 149.910156 61.257812 146.742188 63.222656 146.027344 62.609375 Z M 153.996094 61.261719 C 153.128906 60.539062 156.546875 59.632812 158.9375 59.65625 C 161.324219 59.679688 162.582031 59.992188 157.417969 60.6875 C 156.96875 60.789062 154.324219 61.570312 153.996094 61.261719 Z M 95.71875 88.25 Z M 106.695312 80.390625 C 106.695312 80.390625 107.472656 79.265625 108.386719 78.171875 C 109.296875 77.074219 110.351562 76.015625 110.820312 76.191406 C 110.808594 76.484375 110.757812 76.765625 110.667969 77.042969 C 110.519531 77.648438 110.304688 78.226562 110.027344 78.785156 C 109.398438 79.980469 108.390625 81 106.695312 80.390625 Z M 115.476562 75.257812 C 113.316406 74.261719 127.519531 68.757812 118.523438 73.769531 C 118.128906 73.996094 115.882812 75.457031 115.476562 75.257812 Z M 126.792969 70.070312 C 124.753906 68.871094 139.449219 64.746094 129.976562 68.878906 C 129.566406 69.0625 127.179688 70.304688 126.785156 70.078125 Z M 66.160156 126.789062 C 65.308594 126.9375 65.496094 124.273438 66 124.183594 C 66.839844 124.070312 66.660156 126.71875 66.160156 126.789062 Z M 66.160156 126.789062 " fill-opacity="1" fill-rule="evenodd"/></g></g></g><g clip-path="url(#04e8a352be)"><g clip-path="url(#5e915c07ad)"><g clip-path="url(#7dc32f53bf)"><path fill="#ffffff" d="M 144.382812 309.179688 C 142.839844 309.871094 140.429688 309.46875 137.628906 308.6875 C 134.847656 307.835938 131.632812 306.761719 128.757812 305.074219 C 125.84375 303.523438 123.078125 301.992188 120.839844 300.96875 C 118.652344 299.8125 117.027344 299.066406 116.195312 299.496094 C 117.425781 298.839844 119.464844 299.53125 122.109375 300.375 C 124.753906 301.222656 127.847656 302.640625 130.90625 304.140625 C 133.980469 305.585938 137.148438 306.6875 139.597656 307.710938 C 142.070312 308.667969 143.867188 309.382812 144.382812 309.179688 Z M 144.382812 309.179688 " fill-opacity="1" fill-rule="evenodd"/></g></g></g><g clip-path="url(#d186a26589)"><g clip-path="url(#64fd624e4a)"><g clip-path="url(#ebf89a1043)"><path fill="#ffffff" d="M 96.929688 287.753906 C 96.898438 287.054688 91.40625 284.839844 85.945312 281.792969 C 80.804688 278.410156 75.273438 274.703125 75.671875 272.324219 C 75.4375 273.449219 80.824219 276.1875 85.953125 279.21875 C 88.4375 280.847656 91.292969 282.058594 93.320312 283.5 C 95.378906 284.894531 96.789062 286.328125 96.929688 287.753906 Z M 96.929688 287.753906 " fill-opacity="1" fill-rule="evenodd"/></g></g></g><g clip-path="url(#5e4f2fa43c)"><g clip-path="url(#37af1a7de5)"><g clip-path="url(#fcf1c687a7)"><path fill="#ffffff" d="M 73.425781 267.851562 C 73.328125 268.71875 70.671875 267.550781 70.734375 267.042969 C 70.859375 266.191406 73.5 267.351562 73.425781 267.851562 Z M 73.425781 267.851562 " fill-opacity="1" fill-rule="evenodd"/></g></g></g><g clip-path="url(#0b7199b088)"><g clip-path="url(#b9a9bc6dd9)"><g clip-path="url(#751f1013c6)"><path fill="#ffffff" d="M 246.703125 73.785156 C 246.410156 71.261719 263.675781 85.175781 250.808594 76.699219 C 250.1875 76.289062 246.78125 74.492188 246.703125 73.785156 Z M 246.703125 73.785156 " fill-opacity="1" fill-rule="evenodd"/></g></g></g><g clip-path="url(#a06bb4ac82)"><g clip-path="url(#55ba77e738)"><g clip-path="url(#b737c71a32)"><path fill="#ffffff" d="M 230.878906 66.195312 C 230.363281 63.625 249.035156 74.835938 239.574219 71.003906 C 239.664062 71.039062 237.570312 70.179688 235.429688 69.136719 C 233.285156 68.097656 231.117188 66.828125 230.878906 66.195312 Z M 230.878906 66.195312 " fill-opacity="1" fill-rule="evenodd"/></g></g></g><g clip-path="url(#757f0f9368)"><g clip-path="url(#1a4de6c584)"><g clip-path="url(#26345fa71d)"><path fill="#ffffff" d="M 139.402344 59.972656 C 134.964844 62.566406 138.082031 55.929688 139.402344 59.972656 Z M 139.402344 59.972656 " fill-opacity="1" fill-rule="evenodd"/></g></g></g><g clip-path="url(#7d51811e64)"><g clip-path="url(#5a838b5983)"><g clip-path="url(#267773ba8e)"><path fill="#ffffff" d="M 71.351562 230.683594 C 71.253906 230.863281 70.519531 229.753906 69.4375 227.9375 L 67.59375 224.761719 C 66.984375 223.550781 66.449219 222.191406 65.851562 220.824219 L 64.097656 216.722656 C 63.515625 215.488281 63.046875 214.214844 62.6875 212.902344 L 61.292969 208.21875 C 60.0625 204.628906 58.472656 199.007812 57.042969 193.835938 C 56.238281 188.621094 55.773438 183.878906 57.632812 182.515625 C 57.175781 182.773438 58.042969 187.933594 58.851562 193.464844 C 60.261719 198.953125 61.597656 204.816406 62.398438 206.894531 C 63.074219 209.28125 65.253906 214.621094 67.808594 219.390625 C 68.394531 220.609375 68.929688 221.804688 69.390625 222.972656 C 69.847656 224.140625 70.460938 225.136719 70.816406 226.128906 C 71.59375 228.054688 71.878906 229.675781 71.351562 230.683594 Z M 71.351562 230.683594 " fill-opacity="1" fill-rule="evenodd"/></g></g></g><g fill="#ffffff" fill-opacity="1"><g transform="translate(114.973211, 219.656294)"><g><path d="M 128.734375 -51.421875 L 127.875 -41.0625 C 125.226562 -41.300781 122.378906 -41.421875 119.328125 -41.421875 C 116.273438 -41.421875 113.710938 -41.363281 111.640625 -41.25 C 110.035156 -28.59375 109.003906 -14.84375 108.546875 0 L 96.46875 0 C 95.769531 -2.988281 95.421875 -6.957031 95.421875 -11.90625 C 95.421875 -16.851562 95.566406 -21.140625 95.859375 -24.765625 C 96.148438 -28.390625 96.523438 -31.984375 96.984375 -35.546875 C 97.441406 -39.109375 97.671875 -41.179688 97.671875 -41.765625 C 96.054688 -41.878906 92.257812 -41.9375 86.28125 -41.9375 C 80.300781 -41.9375 76.160156 -41.820312 73.859375 -41.59375 C 60.515625 -23.644531 48.203125 -10.039062 36.921875 -0.78125 C 25.648438 8.476562 14.378906 13.109375 3.109375 13.109375 C -2.410156 13.109375 -7.039062 11.441406 -10.78125 8.109375 C -14.519531 4.773438 -16.390625 0.347656 -16.390625 -5.171875 C -16.390625 -15.640625 -8.425781 -25.1875 7.5 -33.8125 C 23.4375 -42.445312 44.0625 -48.257812 69.375 -51.25 C 72.363281 -55.851562 77.941406 -62.957031 86.109375 -72.5625 C 94.273438 -82.164062 102.328125 -90.535156 110.265625 -97.671875 C 113.710938 -105.722656 116.441406 -111.328125 118.453125 -114.484375 C 120.472656 -117.648438 122.457031 -119.234375 124.40625 -119.234375 C 126.363281 -119.234375 127.972656 -118.484375 129.234375 -116.984375 C 130.503906 -115.492188 131.140625 -113.566406 131.140625 -111.203125 C 131.140625 -108.847656 129.84375 -105.398438 127.25 -100.859375 C 124.664062 -96.316406 121.992188 -89.300781 119.234375 -79.8125 C 116.472656 -70.320312 114.578125 -61.378906 113.546875 -52.984375 C 119.523438 -52.984375 124.585938 -52.460938 128.734375 -51.421875 Z M 40.71875 -15.359375 C 50.269531 -24.441406 57.460938 -33.070312 62.296875 -41.25 C 42.960938 -40.09375 28.03125 -36.460938 17.5 -30.359375 C 6.976562 -24.265625 1.71875 -17.769531 1.71875 -10.875 C 1.71875 -7.882812 2.722656 -5.523438 4.734375 -3.796875 C 6.753906 -2.066406 9.429688 -1.203125 12.765625 -1.203125 C 21.742188 -1.203125 31.0625 -5.921875 40.71875 -15.359375 Z M 99.734375 -52.984375 C 100.546875 -56.890625 101.613281 -61.804688 102.9375 -67.734375 C 104.257812 -73.660156 105.035156 -77.140625 105.265625 -78.171875 C 99.742188 -72.878906 95.890625 -68.992188 93.703125 -66.515625 C 91.515625 -64.046875 87.660156 -59.300781 82.140625 -52.28125 C 84.097656 -52.394531 86.484375 -52.476562 89.296875 -52.53125 C 92.117188 -52.59375 94.445312 -52.679688 96.28125 -52.796875 C 98.125 -52.921875 99.273438 -52.984375 99.734375 -52.984375 Z M 99.734375 -52.984375 "/></g></g></g><g fill="#ffffff" fill-opacity="1"><g transform="translate(251.294552, 219.656294)"><g><path d="M 58.15625 -67.46875 L 56.59375 -60.734375 C 54.644531 -60.972656 52.113281 -61.09375 49 -61.09375 C 37.5 -61.09375 31.75 -57.296875 31.75 -49.703125 C 31.75 -48.085938 34.078125 -43.367188 38.734375 -35.546875 C 43.398438 -27.722656 45.734375 -22.488281 45.734375 -19.84375 C 45.734375 -13.632812 43.628906 -8.773438 39.421875 -5.265625 C 35.222656 -1.753906 29.617188 0 22.609375 0 C 12.941406 0 5.175781 -5.347656 -0.6875 -16.046875 L 5.859375 -20.703125 C 7.472656 -19.441406 9.203125 -17.914062 11.046875 -16.125 C 12.890625 -14.34375 14.269531 -13.109375 15.1875 -12.421875 C 17.375 -10.460938 19.789062 -9.484375 22.4375 -9.484375 C 25.082031 -9.484375 27.378906 -10.429688 29.328125 -12.328125 C 31.285156 -14.234375 32.265625 -16.59375 32.265625 -19.40625 C 32.265625 -22.226562 29.757812 -27.492188 24.75 -35.203125 C 19.75 -42.910156 17.25 -48.316406 17.25 -51.421875 C 17.25 -57.054688 19.632812 -61.367188 24.40625 -64.359375 C 29.1875 -67.359375 35.457031 -68.859375 43.21875 -68.859375 C 50.988281 -68.859375 55.96875 -68.394531 58.15625 -67.46875 Z M 58.15625 -67.46875 "/></g></g></g></svg>